<svg width="40" height="40" viewBox="0 0 40 40" fill="none" xmlns="http://www.w3.org/2000/svg">
<path d="M36.37 12.385C36.0583 11.935 35.5467 11.6667 35 11.6667H12.2217L10.2983 7.05C9.77834 5.80333 8.57168 5 7.22168 5H3.33334V8.33333H7.22168L15.1283 27.3083C15.3867 27.9283 15.9933 28.3333 16.6667 28.3333H30C30.695 28.3333 31.3167 27.9017 31.5617 27.2533L36.5617 13.92C36.7533 13.4067 36.6817 12.8333 36.37 12.385Z" fill="#EDF2EF"/>
<path d="M17.5 35C18.8807 35 20 33.8807 20 32.5C20 31.1193 18.8807 30 17.5 30C16.1193 30 15 31.1193 15 32.5C15 33.8807 16.1193 35 17.5 35Z" fill="#EDF2EF"/>
<path d="M29.1667 35C30.5474 35 31.6667 33.8807 31.6667 32.5C31.6667 31.1193 30.5474 30 29.1667 30C27.786 30 26.6667 31.1193 26.6667 32.5C26.6667 33.8807 27.786 35 29.1667 35Z" fill="#EDF2EF"/>
</svg>
