<svg width="69" height="69" viewBox="0 0 69 69" fill="none" xmlns="http://www.w3.org/2000/svg">
<path d="M57.5 8.625H11.5C9.91013 8.625 8.625 9.913 8.625 11.5V57.5C8.625 59.087 9.91013 60.375 11.5 60.375H36.2681V40.365H29.5464V32.5306H36.2681V26.7806C36.2681 20.0962 40.3506 16.4536 46.3306 16.4536C48.3402 16.4479 50.3527 16.5514 52.3537 16.7612V23.7188H48.2281C44.9851 23.7188 44.3526 25.2655 44.3526 27.5281V32.5163H52.1065L51.1003 40.3506H44.3498V60.375H57.5C59.0899 60.375 60.375 59.087 60.375 57.5V11.5C60.375 9.913 59.0899 8.625 57.5 8.625Z" fill="white"/>
</svg>
