<svg width="69" height="69" viewBox="0 0 69 69" fill="none" xmlns="http://www.w3.org/2000/svg">
<path d="M34.4971 21.2089C27.1544 21.2089 21.206 27.1601 21.206 34.5C21.206 41.8427 27.1544 47.794 34.4971 47.794C41.8341 47.794 47.7882 41.8427 47.7882 34.5C47.7882 27.1601 41.8341 21.2089 34.4971 21.2089ZM34.4971 43.1365C29.7275 43.1365 25.8606 39.2696 25.8606 34.5029C25.8606 29.7332 29.7275 25.8692 34.4971 25.8692C39.2667 25.8692 43.1279 29.7332 43.1279 34.5029C43.1279 39.2696 39.2667 43.1365 34.4971 43.1365Z" fill="white"/>
<path d="M48.3173 23.8195C50.0289 23.8195 51.4165 22.4319 51.4165 20.7202C51.4165 19.0086 50.0289 17.621 48.3173 17.621C46.6056 17.621 45.218 19.0086 45.218 20.7202C45.218 22.4319 46.6056 23.8195 48.3173 23.8195Z" fill="white"/>
<path d="M59.0324 17.5692C57.684 14.0933 54.9384 11.3448 51.4625 10.0022C49.4529 9.24603 47.3282 8.84065 45.1777 8.79465C42.4091 8.6739 41.5322 8.6394 34.5115 8.6394C27.4907 8.6394 26.5909 8.6394 23.8452 8.79465C21.7005 8.83778 19.5759 9.24315 17.5662 10.0022C14.0875 11.3448 11.3419 14.0933 9.99636 17.5692C9.24024 19.5817 8.83486 21.7034 8.79174 23.8539C8.66811 26.6197 8.63074 27.4965 8.63074 34.5202C8.63074 41.5409 8.63074 42.435 8.79174 45.1864C8.83486 47.3369 9.24024 49.4587 9.99636 51.474C11.3447 54.947 14.0904 57.6955 17.5691 59.041C19.5701 59.823 21.6947 60.2658 23.851 60.3348C26.6196 60.4555 27.4965 60.4929 34.5172 60.4929C41.538 60.4929 42.4379 60.4929 45.1835 60.3348C47.3311 60.2917 49.4557 59.8834 51.4682 59.1302C54.9441 57.7818 57.6897 55.0362 59.0381 51.5603C59.7942 49.5478 60.1996 47.426 60.2427 45.2755C60.3664 42.5098 60.4037 41.6329 60.4037 34.6093C60.4037 27.5857 60.4037 26.6944 60.2427 23.943C60.2054 21.7638 59.8029 19.6047 59.0324 17.5692ZM55.5306 44.9737C55.5105 46.6297 55.2115 48.2713 54.6365 49.8267C53.7596 52.0893 51.9742 53.8775 49.7145 54.7458C48.1764 55.3179 46.5549 55.6169 44.9132 55.6399C42.182 55.7664 41.4115 55.798 34.408 55.798C27.3987 55.798 26.6829 55.798 23.8999 55.6399C22.264 55.6198 20.6367 55.3179 19.1015 54.7458C16.8331 53.8804 15.0362 52.0922 14.1594 49.8267C13.5959 48.2914 13.2911 46.667 13.2652 45.0283C13.1416 42.297 13.1129 41.5265 13.1129 34.523C13.1129 27.5167 13.1129 26.8008 13.2652 24.0149C13.2854 22.3589 13.5844 20.7202 14.1594 19.1648C15.0362 16.8964 16.8331 15.111 19.1015 14.2428C20.6367 13.6735 22.264 13.3717 23.8999 13.3487C26.634 13.225 27.4016 13.1905 34.408 13.1905C41.4144 13.1905 42.1331 13.1905 44.9132 13.3487C46.5549 13.3688 48.1764 13.6707 49.7145 14.2428C51.9742 15.1139 53.7596 16.9022 54.6365 19.1648C55.2 20.7 55.5047 22.3244 55.5306 23.9632C55.6542 26.6973 55.6859 27.4649 55.6859 34.4713C55.6859 41.4748 55.6859 42.228 55.5622 44.9765H55.5306V44.9737Z" fill="white"/>
</svg>
