<svg width="40" height="40" viewBox="0 0 40 40" fill="none" xmlns="http://www.w3.org/2000/svg">
<path d="M33.3333 3.33331H13.3333C11.4933 3.33331 10 4.82665 10 6.66665V26.6666C10 28.5066 11.4933 30 13.3333 30H33.3333C35.1733 30 36.6667 28.5066 36.6667 26.6666V6.66665C36.6667 4.82665 35.1733 3.33331 33.3333 3.33331ZM23.3333 7.49998C25.635 7.49998 27.5 9.36498 27.5 11.6666C27.5 13.9683 25.635 15.8333 23.3333 15.8333C21.0317 15.8333 19.1667 13.9683 19.1667 11.6666C19.1667 9.36498 21.0317 7.49998 23.3333 7.49998ZM31.6667 25H15V24.5833C15 21.5016 18.7567 18.3333 23.3333 18.3333C27.91 18.3333 31.6667 21.5016 31.6667 24.5833V25Z" fill="#EDF2EF"/>
<path d="M6.66665 13.3333H3.33331V33.3333C3.33331 35.1717 4.82831 36.6667 6.66665 36.6667H26.6666V33.3333H6.66665V13.3333Z" fill="#EDF2EF"/>
</svg>
